<?xml version="1.0" encoding="UTF-8" standalone="no"?>
<!-- Created with Inkscape (http://www.inkscape.org/) -->

<svg
   xmlns:dc="http://purl.org/dc/elements/1.1/"
   xmlns:cc="http://creativecommons.org/ns#"
   xmlns:rdf="http://www.w3.org/1999/02/22-rdf-syntax-ns#"
   xmlns:svg="http://www.w3.org/2000/svg"
   xmlns="http://www.w3.org/2000/svg"
   xmlns:sodipodi="http://sodipodi.sourceforge.net/DTD/sodipodi-0.dtd"
   xmlns:inkscape="http://www.inkscape.org/namespaces/inkscape"
   width="59.153271mm"
   height="59.153271mm"
   viewBox="0 0 59.153271 59.153271"
   version="1.1"
   id="svg8"
   inkscape:version="0.92.3 (2405546, 2018-03-11)"
   sodipodi:docname="404.svg">
  <defs
     id="defs2" />
  <sodipodi:namedview
     id="base"
     pagecolor="#ffffff"
     bordercolor="#666666"
     borderopacity="1.0"
     inkscape:pageopacity="0.0"
     inkscape:pageshadow="2"
     inkscape:zoom="1.4"
     inkscape:cx="-1.4804659"
     inkscape:cy="98.239043"
     inkscape:document-units="mm"
     inkscape:current-layer="layer1"
     showgrid="false"
     fit-margin-top="0"
     fit-margin-left="0"
     fit-margin-right="0"
     fit-margin-bottom="0"
     inkscape:window-width="2560"
     inkscape:window-height="1378"
     inkscape:window-x="0"
     inkscape:window-y="0"
     inkscape:window-maximized="1" />
  <metadata
     id="metadata5">
    <rdf:RDF>
      <cc:Work
         rdf:about="">
        <dc:format>image/svg+xml</dc:format>
        <dc:type
           rdf:resource="http://purl.org/dc/dcmitype/StillImage" />
        <dc:title></dc:title>
      </cc:Work>
    </rdf:RDF>
  </metadata>
  <g
     inkscape:label="Layer 1"
     inkscape:groupmode="layer"
     id="layer1"
     transform="translate(-46.302082,-38.842262)">
    <rect
       style="opacity:1;fill:#000000;fill-opacity:1;stroke:none;stroke-width:2;stroke-linecap:round;stroke-linejoin:miter;stroke-miterlimit:4;stroke-dasharray:none;stroke-opacity:1"
       id="rect815"
       width="59.153271"
       height="59.153271"
       x="46.302082"
       y="38.842262" />
    <g
       aria-label="IMAGE 
NOT 
FOUND"
       style="font-style:normal;font-variant:normal;font-weight:bold;font-stretch:normal;font-size:13.41370773px;line-height:1.25;font-family:'Ubuntu Condensed';-inkscape-font-specification:'Ubuntu Condensed, Bold';letter-spacing:0px;word-spacing:0px;fill:#000000;fill-opacity:1;stroke:none;stroke-width:0.26458335"
       id="text819">
      <path
         d="m 57.988312,55.648735 h -1.964898 v -9.536308 h 1.964898 z"
         style="font-style:normal;font-variant:normal;font-weight:bold;font-stretch:normal;font-family:Roboto;-inkscape-font-specification:'Roboto Bold';text-align:center;text-anchor:middle;fill:#ffffff;fill-opacity:1;stroke-width:0.26458335"
         id="path827"
         inkscape:connector-curvature="0" />
      <path
         d="m 62.370036,46.112427 2.449574,6.916443 2.436474,-6.916443 h 2.580567 v 9.536308 H 67.865202 V 53.04197 l 0.19649,-4.499618 -2.574017,7.106383 h -1.34923 l -2.567468,-7.099834 0.19649,4.493069 v 2.606765 h -1.964898 v -9.536308 z"
         style="font-style:normal;font-variant:normal;font-weight:bold;font-stretch:normal;font-family:Roboto;-inkscape-font-specification:'Roboto Bold';text-align:center;text-anchor:middle;fill:#ffffff;fill-opacity:1;stroke-width:0.26458335"
         id="path829"
         inkscape:connector-curvature="0" />
      <path
         d="m 77.080577,53.683836 h -3.445122 l -0.654966,1.964899 h -2.089343 l 3.549917,-9.536308 h 1.820806 l 3.569566,9.536308 h -2.089342 z m -2.9146,-1.591567 h 2.384077 l -1.198588,-3.569566 z"
         style="font-style:normal;font-variant:normal;font-weight:bold;font-stretch:normal;font-family:Roboto;-inkscape-font-specification:'Roboto Bold';text-align:center;text-anchor:middle;fill:#ffffff;fill-opacity:1;stroke-width:0.26458335"
         id="path831"
         inkscape:connector-curvature="0" />
      <path
         d="m 88.149505,54.443597 q -0.530523,0.635317 -1.499873,0.988999 -0.96935,0.347132 -2.148289,0.347132 -1.237886,0 -2.174488,-0.537072 -0.930052,-0.543622 -1.440925,-1.571919 -0.504324,-1.028297 -0.517424,-2.416825 v -0.648417 q 0,-1.427826 0.478126,-2.469222 0.484675,-1.047946 1.388528,-1.598118 0.910403,-0.556721 2.12864,-0.556721 1.696363,0 2.652613,0.812158 0.956251,0.805608 1.133092,2.351329 h -1.912502 q -0.130993,-0.818708 -0.582919,-1.198588 -0.445377,-0.379881 -1.231337,-0.379881 -1.002098,0 -1.526071,0.753211 -0.523973,0.753211 -0.530523,2.239985 v 0.609118 q 0,1.499873 0.569821,2.266183 0.56982,0.766311 1.670164,0.766311 1.106893,0 1.578468,-0.471576 v -1.643965 h -1.788058 v -1.447475 h 3.752957 z"
         style="font-style:normal;font-variant:normal;font-weight:bold;font-stretch:normal;font-family:Roboto;-inkscape-font-specification:'Roboto Bold';text-align:center;text-anchor:middle;fill:#ffffff;fill-opacity:1;stroke-width:0.26458335"
         id="path833"
         inkscape:connector-curvature="0" />
      <path
         d="M 95.485126,51.515898 H 91.71252 v 2.554369 h 4.427572 v 1.578468 h -6.39247 v -9.536308 h 6.379371 v 1.591568 H 91.71252 v 2.272733 h 3.772606 z"
         style="font-style:normal;font-variant:normal;font-weight:bold;font-stretch:normal;font-family:Roboto;-inkscape-font-specification:'Roboto Bold';text-align:center;text-anchor:middle;fill:#ffffff;fill-opacity:1;stroke-width:0.26458335"
         id="path835"
         inkscape:connector-curvature="0" />
      <path
         d="m 71.290676,73.187053 h -1.964899 l -3.825003,-6.274576 v 6.274576 h -1.964898 v -9.536308 h 1.964898 l 3.831553,6.287676 v -6.287676 h 1.958349 z"
         style="font-style:normal;font-variant:normal;font-weight:bold;font-stretch:normal;font-family:Roboto;-inkscape-font-specification:'Roboto Bold';text-align:center;text-anchor:middle;fill:#ffffff;fill-opacity:1;stroke-width:0.26458335"
         id="path837"
         inkscape:connector-curvature="0" />
      <path
         d="m 80.853182,68.635038 q 0,1.408177 -0.497774,2.469223 -0.497774,1.061045 -1.427826,1.637415 -0.923503,0.57637 -2.122091,0.57637 -1.185489,0 -2.115541,-0.56982 -0.930052,-0.569821 -1.440925,-1.624316 -0.510874,-1.061046 -0.517424,-2.436475 V 68.21586 q 0,-1.408178 0.504324,-2.475772 0.510874,-1.074145 1.434376,-1.643966 0.930052,-0.57637 2.122091,-0.57637 1.192038,0 2.115541,0.57637 0.930052,0.569821 1.434376,1.643966 0.510873,1.067594 0.510873,2.469222 z M 78.862085,68.20276 q 0,-1.499872 -0.537072,-2.279282 -0.537073,-0.77941 -1.532621,-0.77941 -0.988999,0 -1.526072,0.77286 -0.537072,0.766311 -0.543621,2.253084 v 0.465026 q 0,1.460575 0.537072,2.266183 0.537072,0.805609 1.54572,0.805609 0.988999,0 1.519522,-0.77286 0.530522,-0.77941 0.537072,-2.266184 z"
         style="font-style:normal;font-variant:normal;font-weight:bold;font-stretch:normal;font-family:Roboto;-inkscape-font-specification:'Roboto Bold';text-align:center;text-anchor:middle;fill:#ffffff;fill-opacity:1;stroke-width:0.26458335"
         id="path839"
         inkscape:connector-curvature="0" />
      <path
         d="m 88.922367,65.242313 h -2.92115 v 7.94474 h -1.964898 v -7.94474 h -2.881851 v -1.591568 h 7.767899 z"
         style="font-style:normal;font-variant:normal;font-weight:bold;font-stretch:normal;font-family:Roboto;-inkscape-font-specification:'Roboto Bold';text-align:center;text-anchor:middle;fill:#ffffff;fill-opacity:1;stroke-width:0.26458335"
         id="path841"
         inkscape:connector-curvature="0" />
      <path
         d="m 60.496833,86.828323 h -3.772606 v 3.897048 h -1.964898 v -9.536307 h 6.209079 v 1.591567 h -4.244181 v 2.462673 h 3.772606 z"
         style="font-style:normal;font-variant:normal;font-weight:bold;font-stretch:normal;font-family:Roboto;-inkscape-font-specification:'Roboto Bold';text-align:center;text-anchor:middle;fill:#ffffff;fill-opacity:1;stroke-width:0.26458335"
         id="path843"
         inkscape:connector-curvature="0" />
      <path
         d="m 69.954545,86.173356 q 0,1.408178 -0.497775,2.469223 -0.497774,1.061045 -1.427826,1.637415 -0.923502,0.576371 -2.12209,0.576371 -1.185489,0 -2.115541,-0.569821 -0.930052,-0.569821 -1.440926,-1.624316 -0.510873,-1.061045 -0.517423,-2.436474 v -0.471576 q 0,-1.408177 0.504324,-2.475772 0.510874,-1.074145 1.434376,-1.643965 0.930052,-0.576371 2.12209,-0.576371 1.192039,0 2.115541,0.576371 0.930052,0.56982 1.434376,1.643965 0.510874,1.067595 0.510874,2.469222 z m -1.991097,-0.432277 q 0,-1.499873 -0.537073,-2.279283 -0.537072,-0.77941 -1.532621,-0.77941 -0.988999,0 -1.526071,0.772861 -0.537072,0.76631 -0.543622,2.253083 v 0.465026 q 0,1.460575 0.537072,2.266183 0.537073,0.805609 1.545721,0.805609 0.988999,0 1.519521,-0.77286 0.530523,-0.77941 0.537073,-2.266183 z"
         style="font-style:normal;font-variant:normal;font-weight:bold;font-stretch:normal;font-family:Roboto;-inkscape-font-specification:'Roboto Bold';text-align:center;text-anchor:middle;fill:#ffffff;fill-opacity:1;stroke-width:0.26458335"
         id="path845"
         inkscape:connector-curvature="0" />
      <path
         d="m 78.613199,81.189064 v 6.281125 q 0,1.56537 -0.982449,2.475773 -0.9759,0.910403 -2.672262,0.910403 -1.670164,0 -2.652613,-0.884205 -0.98245,-0.884204 -1.002099,-2.429924 v -6.353172 h 1.964899 v 6.294225 q 0,0.936601 0.445377,1.368879 0.451927,0.425728 1.244436,0.425728 1.657064,0 1.683263,-1.74221 v -6.346622 z"
         style="font-style:normal;font-variant:normal;font-weight:bold;font-stretch:normal;font-family:Roboto;-inkscape-font-specification:'Roboto Bold';text-align:center;text-anchor:middle;fill:#ffffff;fill-opacity:1;stroke-width:0.26458335"
         id="path847"
         inkscape:connector-curvature="0" />
      <path
         d="m 87.979215,90.725371 h -1.964899 l -3.825003,-6.274576 v 6.274576 h -1.964898 v -9.536307 h 1.964898 l 3.831553,6.287675 v -6.287675 h 1.958349 z"
         style="font-style:normal;font-variant:normal;font-weight:bold;font-stretch:normal;font-family:Roboto;-inkscape-font-specification:'Roboto Bold';text-align:center;text-anchor:middle;fill:#ffffff;fill-opacity:1;stroke-width:0.26458335"
         id="path849"
         inkscape:connector-curvature="0" />
      <path
         d="m 89.708326,90.725371 v -9.536307 h 2.934249 q 1.257535,0 2.246534,0.56982 0.995549,0.563271 1.55227,1.611217 0.556721,1.041396 0.556721,2.370978 v 0.438827 q 0,1.329581 -0.550172,2.364428 -0.543621,1.034847 -1.53917,1.604667 -0.995549,0.569821 -2.246534,0.57637 z m 1.964899,-7.94474 v 6.366272 h 0.949701 q 1.15274,0 1.761859,-0.753211 0.609119,-0.753211 0.622218,-2.154839 v -0.504324 q 0,-1.454025 -0.602569,-2.200686 -0.602569,-0.753212 -1.761859,-0.753212 z"
         style="font-style:normal;font-variant:normal;font-weight:bold;font-stretch:normal;font-family:Roboto;-inkscape-font-specification:'Roboto Bold';text-align:center;text-anchor:middle;fill:#ffffff;fill-opacity:1;stroke-width:0.26458335"
         id="path851"
         inkscape:connector-curvature="0" />
    </g>
  </g>
</svg>
