<svg _ngcontent-wry-c8="" xmlns="http://www.w3.org/2000/svg" viewBox="0 0 116 116" class="opensea-logo"><path _ngcontent-wry-c8="" fill="teal" d="M84.3 65.5c-.2-.2-.5-.2-.8-.1l-.7.3a24.6 24.6 0 01-11 2.5c-.2 0-.3.1-.3.2a3.9 3.9 0 01-3.8 3.1h-7.8V65h.1l1.4.2c3.3.5 4.9 2 5.6 2.7l.1.1c.1.1.3.1.4 0l.4-.3c1.2-.8 4-2.5 4-11.5 0-9.2-7-15.4-7.8-15.8l-4.1-.3h-.1v-2.6a3 3 0 001.4-2.5c0-1.6-1.2-2.9-2.8-2.9a2.8 2.8 0 00-2.8 2.9c0 1 .5 1.9 1.4 2.4v2.2l-5.9-.6c-.3 0-.5.3-.3.5 1 1.6 3.7 6.6 3.9 14.1a28 28 0 01-1.4 11.8l.3.1 3.4-.4v6.5h-6.5a4 4 0 01-3.9-3.9v-1.6c0-.2-.1-.3-.3-.3H34.3c-.1 0-.3.1-.3.3v.9c0 4.5 1.3 8.6 3.5 12.2.4.6 1.1.9 1.7.6l1.3-.6c1-.5 2.2-.5 3.3 0l1.4.6c1 .5 2.2.5 3.3 0l1.4-.6c1.1-.5 2.2-.5 3.3 0l1.4.6c1.1.5 2.2.5 3.3 0l1.4-.6c1.1-.5 2.2-.5 3.3 0l1.4.6c1.1.5 2.2.5 3.3 0l1.4-.6c1.1-.5 2.2-.5 3.3 0l1.4.6c.9.4 1.9-.1 2.4-1a23 23 0 002-4.2 13 13 0 016.2-7.9c.3-.1.4-.4.4-.7.2-.1.1-.4-.1-.5zm-44.6-2.2h11.4c.2 0 .3-.1.3-.3V50.6l-.2-.3-5.6-2.6c-.1-.1-.3 0-.4.2l-5.8 14.9c-.1.3.1.5.3.5zM58 0a58 58 0 100 116A58 58 0 0058 0zm-.2 100.2a41.8 41.8 0 110-83.6 41.8 41.8 0 010 83.6zm25.7-34.8l-.7.3a24.6 24.6 0 01-11 2.5c-.2 0-.3.1-.3.2a3.9 3.9 0 01-3.8 3.1h-7.8V65h.1l1.4.2c3.3.5 4.9 2 5.6 2.7l.1.1c.1.1.3.1.4 0l.4-.3c1.2-.8 4-2.5 4-11.5 0-9.2-7-15.4-7.8-15.8l-4.1-.3h-.1v-2.6a3 3 0 001.4-2.5c0-1.6-1.2-2.9-2.8-2.9a2.8 2.8 0 00-2.8 2.9c0 1 .5 1.9 1.4 2.4v2.2l-5.9-.6c-.3 0-.5.3-.3.5 1 1.6 3.7 6.6 3.9 14.1a28 28 0 01-1.4 11.8l.3.1 3.4-.4v6.5h-6.5a4 4 0 01-3.9-3.9v-1.6c0-.2-.1-.3-.3-.3H34.3c-.1 0-.3.1-.3.3v.9c0 4.5 1.3 8.6 3.5 12.2.4.6 1.1.9 1.7.6l1.3-.6c1-.5 2.2-.5 3.3 0l1.4.6c1 .5 2.2.5 3.3 0l1.4-.6c1.1-.5 2.2-.5 3.3 0l1.4.6c1.1.5 2.2.5 3.3 0l1.4-.6c1.1-.5 2.2-.5 3.3 0l1.4.6c1.1.5 2.2.5 3.3 0l1.4-.6c1.1-.5 2.2-.5 3.3 0l1.4.6c.9.4 1.9-.1 2.4-1a23 23 0 002-4.2 13 13 0 016.2-7.9c.3-.1.4-.4.4-.7 0-.2-.1-.5-.3-.6h-.6zm-43.8-2.1h11.4c.2 0 .3-.1.3-.3V50.6l-.2-.3-5.6-2.6c-.1-.1-.3 0-.4.2l-5.8 14.9c-.1.3.1.5.3.5z"></path><path _ngcontent-wry-c8="" fill="teal" d="M51.2 50.4l-5.6-2.6c-.1-.1-.3 0-.4.2l-5.8 14.9c-.1.2.1.4.3.4h11.4c.2 0 .3-.1.3-.3V50.6l-.2-.2zm33.1 15.1c-.2-.2-.5-.2-.8-.1l-.7.3a24.6 24.6 0 01-11 2.5c-.2 0-.3.1-.3.2a3.9 3.9 0 01-3.8 3.1h-7.8V65h.1l1.4.2c3.3.5 4.9 2 5.6 2.7l.1.1c.1.1.3.1.4 0l.4-.3c1.2-.8 4-2.5 4-11.5 0-9.2-7-15.4-7.8-15.8l-4.1-.3h-.1v-2.6a3 3 0 001.4-2.5c0-1.6-1.2-2.9-2.8-2.9a2.8 2.8 0 00-2.8 2.9c0 1 .5 1.9 1.4 2.4v2.2l-5.9-.6c-.3 0-.5.3-.3.5 1 1.6 3.7 6.6 3.9 14.1a28 28 0 01-1.4 11.8l.3.1 3.4-.4v6.5h-6.5a4 4 0 01-3.9-3.9v-1.6c0-.2-.1-.3-.3-.3H34.3c-.1 0-.3.1-.3.3v.9c0 4.5 1.3 8.6 3.5 12.2.4.6 1.1.9 1.7.6l1.3-.6c1-.5 2.2-.5 3.3 0l1.4.6c1 .5 2.2.5 3.3 0l1.4-.6c1.1-.5 2.2-.5 3.3 0l1.4.6c1.1.5 2.2.5 3.3 0l1.4-.6c1.1-.5 2.2-.5 3.3 0l1.4.6c1.1.5 2.2.5 3.3 0l1.4-.6c1.1-.5 2.2-.5 3.3 0l1.4.6c.9.4 1.9-.1 2.4-1a23 23 0 002-4.2 13 13 0 016.2-7.9c.3-.1.4-.4.4-.7.2-.1.1-.4-.1-.5z"></path></svg>